<svg width="239" height="25" viewBox="0 0 239 25" fill="none" xmlns="http://www.w3.org/2000/svg">
<path d="M68.3409 9.64206C68.0171 7.23013 66.0739 5.73865 62.7671 5.73865C59.4176 5.73865 57.2102 7.28979 57.2188 9.81252C57.2102 11.7727 58.446 13.0426 61.0028 13.554L63.2699 14.0057C64.4119 14.2358 64.9318 14.6534 64.9489 15.3097C64.9318 16.0852 64.0881 16.6392 62.8182 16.6392C61.5227 16.6392 60.6619 16.0852 60.4403 15.0199L56.8693 15.2074C57.2102 17.7131 59.3409 19.2557 62.8097 19.2557C66.2017 19.2557 68.6307 17.5256 68.6392 14.9432C68.6307 13.0512 67.3949 11.9176 64.8551 11.3977L62.4858 10.9205C61.2671 10.6563 60.8153 10.2387 60.8239 9.60797C60.8153 8.82388 61.7017 8.31251 62.8267 8.31251C64.0881 8.31251 64.8381 9.00286 65.0171 9.84661L68.3409 9.64206Z" fill="#F8F8F8"/>
<path d="M70.9254 23.9091H74.5561V16.9034H74.6669C75.1698 17.9943 76.2692 19.2131 78.3828 19.2131C81.3658 19.2131 83.6925 16.8523 83.6925 12.4716C83.6925 7.97161 81.2635 5.73865 78.3913 5.73865C76.201 5.73865 75.1527 7.04263 74.6669 8.10797H74.505V5.9091H70.9254V23.9091ZM74.4794 12.4546C74.4794 10.1193 75.468 8.62786 77.2323 8.62786C79.0305 8.62786 79.9851 10.1875 79.9851 12.4546C79.9851 14.7387 79.0135 16.3239 77.2323 16.3239C75.4851 16.3239 74.4794 14.7898 74.4794 12.4546Z" fill="#F8F8F8"/>
<path d="M89.8459 19.2472C91.7805 19.2472 93.0334 18.4034 93.6726 17.1847H93.7749V19H97.218V10.1705C97.218 7.05115 94.576 5.73865 91.6612 5.73865C88.5249 5.73865 86.4624 7.23865 85.9595 9.62502L89.3175 9.89774C89.5646 9.02842 90.3402 8.38922 91.6442 8.38922C92.88 8.38922 93.5874 9.01138 93.5874 10.0852V10.1364C93.5874 10.9801 92.6925 11.0909 90.4169 11.3125C87.826 11.5512 85.4993 12.4205 85.4993 15.3438C85.4993 17.9347 87.3487 19.2472 89.8459 19.2472ZM90.8857 16.7415C89.7692 16.7415 88.968 16.2216 88.968 15.2244C88.968 14.2017 89.8118 13.6989 91.0902 13.5199C91.8828 13.4091 93.1783 13.2216 93.6129 12.9318V14.321C93.6129 15.6932 92.4794 16.7415 90.8857 16.7415Z" fill="#F8F8F8"/>
<path d="M105.95 19.2557C109.435 19.2557 111.626 17.2102 111.796 14.2017H108.37C108.157 15.5994 107.237 16.3835 105.992 16.3835C104.296 16.3835 103.197 14.9602 103.197 12.4546C103.197 9.98297 104.305 8.5682 105.992 8.5682C107.322 8.5682 108.174 9.44604 108.37 10.75H111.796C111.643 7.72445 109.35 5.73865 105.933 5.73865C101.961 5.73865 99.5064 8.49149 99.5064 12.5057C99.5064 16.4858 101.918 19.2557 105.95 19.2557Z" fill="#F8F8F8"/>
<path d="M120.087 19.2557C123.325 19.2557 125.507 17.679 126.018 15.25L122.661 15.0284C122.294 16.0256 121.357 16.5455 120.146 16.5455C118.331 16.5455 117.18 15.3438 117.18 13.3921V13.3835H126.095V12.3864C126.095 7.93752 123.402 5.73865 119.942 5.73865C116.089 5.73865 113.592 8.47445 113.592 12.5142C113.592 16.6648 116.055 19.2557 120.087 19.2557ZM117.18 11.1335C117.257 9.64206 118.391 8.44888 120.001 8.44888C121.578 8.44888 122.669 9.57388 122.678 11.1335H117.18Z" fill="#F8F8F8"/>
<path d="M135.428 5.9091H132.964V2.77274H129.334V5.9091H127.544V8.63638H129.334V15.4546C129.317 18.0199 131.064 19.2898 133.697 19.179C134.635 19.1449 135.3 18.9574 135.666 18.8381L135.095 16.1364C134.916 16.1705 134.533 16.2557 134.192 16.2557C133.467 16.2557 132.964 15.983 132.964 14.9773V8.63638H135.428V5.9091Z" fill="#F8F8F8"/>
<path d="M137.793 19H141.423V11.5938C141.423 9.98297 142.599 8.87502 144.202 8.87502C144.705 8.87502 145.395 8.96024 145.736 9.07104V5.84945C145.412 5.77274 144.96 5.7216 144.594 5.7216C143.128 5.7216 141.926 6.57388 141.449 8.1932H141.313V5.9091H137.793V19Z" fill="#F8F8F8"/>
<path d="M150.971 19.2472C152.906 19.2472 154.158 18.4034 154.798 17.1847H154.9V19H158.343V10.1705C158.343 7.05115 155.701 5.73865 152.786 5.73865C149.65 5.73865 147.587 7.23865 147.085 9.62502L150.442 9.89774C150.69 9.02842 151.465 8.38922 152.769 8.38922C154.005 8.38922 154.712 9.01138 154.712 10.0852V10.1364C154.712 10.9801 153.817 11.0909 151.542 11.3125C148.951 11.5512 146.624 12.4205 146.624 15.3438C146.624 17.9347 148.474 19.2472 150.971 19.2472ZM152.011 16.7415C150.894 16.7415 150.093 16.2216 150.093 15.2244C150.093 14.2017 150.937 13.6989 152.215 13.5199C153.008 13.4091 154.303 13.2216 154.738 12.9318V14.321C154.738 15.6932 153.604 16.7415 152.011 16.7415Z" fill="#F8F8F8"/>
<path d="M172.896 5.9091H169.052L166.342 15.2756H166.205L163.487 5.9091H159.651L164.228 19H168.319L172.896 5.9091Z" fill="#F8F8F8"/>
<path d="M180.274 19.2557C183.513 19.2557 185.695 17.679 186.206 15.25L182.848 15.0284C182.482 16.0256 181.544 16.5455 180.334 16.5455C178.518 16.5455 177.368 15.3438 177.368 13.3921V13.3835H186.283V12.3864C186.283 7.93752 183.59 5.73865 180.129 5.73865C176.277 5.73865 173.78 8.47445 173.78 12.5142C173.78 16.6648 176.243 19.2557 180.274 19.2557ZM177.368 11.1335C177.445 9.64206 178.578 8.44888 180.189 8.44888C181.766 8.44888 182.857 9.57388 182.865 11.1335H177.368Z" fill="#F8F8F8"/>
<path d="M192.283 1.54547H188.652V19H192.283V1.54547Z" fill="#F8F8F8"/>
<path d="M195.191 19H198.822V5.9091H195.191V19ZM197.015 4.2216C198.097 4.2216 198.984 3.3949 198.984 2.3807C198.984 1.37501 198.097 0.548309 197.015 0.548309C195.941 0.548309 195.055 1.37501 195.055 2.3807C195.055 3.3949 195.941 4.2216 197.015 4.2216Z" fill="#F8F8F8"/>
<path d="M205.361 11.4318C205.369 9.74433 206.375 8.7557 207.841 8.7557C209.298 8.7557 210.176 9.71024 210.168 11.3125V19H213.798V10.6648C213.798 7.61365 212.009 5.73865 209.281 5.73865C207.338 5.73865 205.932 6.6932 205.344 8.21876H205.19V5.9091H201.73V19H205.361V11.4318Z" fill="#F8F8F8"/>
<path d="M222.558 24.1818C226.299 24.1818 228.958 22.4773 228.958 19.1279V5.9091H225.353V8.10797H225.217C224.731 7.04263 223.665 5.73865 221.475 5.73865C218.603 5.73865 216.174 7.97161 216.174 12.429C216.174 16.7841 218.535 18.8125 221.484 18.8125C223.572 18.8125 224.739 17.7642 225.217 16.6818H225.37V19.0767C225.37 20.875 224.219 21.5739 222.643 21.5739C221.04 21.5739 220.231 20.875 219.933 20.0824L216.575 20.5341C217.009 22.5966 219.029 24.1818 222.558 24.1818ZM222.634 16.0852C220.853 16.0852 219.881 14.6705 219.881 12.4119C219.881 10.1875 220.836 8.62786 222.634 8.62786C224.398 8.62786 225.387 10.1193 225.387 12.4119C225.387 14.7216 224.381 16.0852 222.634 16.0852Z" fill="#F8F8F8"/>
<path d="M236.571 20.2216C237.662 20.2216 238.608 19.3097 238.616 18.1761C238.608 17.0597 237.662 16.1477 236.571 16.1477C235.446 16.1477 234.517 17.0597 234.526 18.1761C234.517 19.3097 235.446 20.2216 236.571 20.2216Z" fill="#FF57B2"/>
<path d="M9.88103 1.55307L0 13.0576L9.88103 24.5601L12.2174 20.8829L5.55897 13.0556L12.2174 5.2283L9.88103 1.55307ZM14.2051 24.2854H18.5415L25.4359 1.76499H21.0974L14.2051 24.2854ZM30.119 1.55307L27.7826 5.23027L34.441 13.0576L27.7826 20.8848L30.119 24.562L40 13.0595L30.119 1.55307Z" fill="#FF57B2"/>
</svg>
